<svg viewBox="0 0 256 256" fill="none" xmlns="http://www.w3.org/2000/svg">
<path d="M237.782 72.9859C235.148 63.1458 227.414 55.413 217.574 52.7789C199.758 48 128.28 48 128.28 48C128.28 48 56.8034 48 38.9858 52.7789C29.1458 55.413 21.413 63.1458 18.7789 72.9859C14 90.8034 14 128 14 128C14 128 14 165.197 18.7789 183.014C21.413 192.854 29.1458 200.587 38.9858 203.221C56.8034 208 128.28 208 128.28 208C128.28 208 199.758 208 217.574 203.221C227.414 200.587 235.148 192.854 237.782 183.014C242.561 165.197 242.561 128 242.561 128C242.561 128 242.542 90.8034 237.782 72.9859Z" fill="#FF0000"/>
<path d="M78.0625 101.319L72.4844 101.694C71.8281 101.725 71.3281 101.975 70.9844 102.444C70.6406 102.881 70.4688 103.334 70.4688 103.803V137.319C70.4688 142.631 69.7812 147.225 68.4062 151.1C67.0625 154.944 64.8438 157.913 61.75 160.006C58.6875 162.1 54.5625 163.147 49.375 163.147C47.3125 163.147 45.3125 162.928 43.375 162.491C41.4688 162.084 39.875 161.663 38.5938 161.225C37.3125 160.756 36.5781 160.491 36.3906 160.428V144.022H42.1562L44.2656 155.741C44.4531 156.709 44.9844 157.366 45.8594 157.709C46.7656 158.053 47.7031 158.225 48.6719 158.225C53.0469 158.225 56.1562 156.538 58 153.163C59.8438 149.756 60.7656 144.694 60.7656 137.975V103.803C60.7656 103.334 60.5938 102.881 60.25 102.444C59.9375 101.975 59.4375 101.725 58.75 101.694L52.7031 101.319V97.1938H78.0625V101.319ZM127.844 161.6H113.641L112.375 155.928C112.375 155.928 111.891 156.272 110.922 156.959C109.984 157.647 108.734 158.444 107.172 159.35C105.609 160.256 103.875 161.053 101.969 161.741C100.094 162.428 98.2188 162.772 96.3438 162.772C92.875 162.772 89.9219 161.616 87.4844 159.303C85.0781 156.991 83.875 153.819 83.875 149.788C83.875 148.006 84.1875 146.35 84.8125 144.819C85.4688 143.288 86.75 141.834 88.6562 140.459C90.5938 139.053 93.4531 137.694 97.2344 136.381C101.047 135.038 106.094 133.678 112.375 132.303V128.178C112.375 121.866 109.391 118.709 103.422 118.709C101.766 118.709 100.328 118.866 99.1094 119.178C97.9219 119.491 97.0938 119.741 96.625 119.928V128.272H89.6406C88.7656 128.272 87.9531 128.116 87.2031 127.803C86.4531 127.459 86.0781 126.694 86.0781 125.506C86.0781 122.881 87.0781 120.741 89.0781 119.084C91.0781 117.397 93.6094 116.163 96.6719 115.381C99.7656 114.569 102.891 114.163 106.047 114.163C110.016 114.163 113.094 114.788 115.281 116.038C117.469 117.256 119 118.959 119.875 121.147C120.75 123.303 121.188 125.772 121.188 128.553V155.459C121.188 156.053 121.375 156.538 121.75 156.913C122.156 157.288 122.641 157.506 123.203 157.569L127.844 157.85V161.6ZM112.375 152.553V135.959C108.062 137.022 104.625 138.1 102.062 139.194C99.5312 140.256 97.6406 141.334 96.3906 142.428C95.1406 143.491 94.3125 144.584 93.9062 145.709C93.5312 146.803 93.3438 147.944 93.3438 149.131C93.3438 151.1 93.9688 152.928 95.2188 154.616C96.5 156.272 98.2812 157.1 100.562 157.1C101.844 157.1 103.172 156.881 104.547 156.444C105.922 155.975 107.203 155.444 108.391 154.85C109.578 154.225 110.531 153.694 111.25 153.256C112 152.788 112.375 152.553 112.375 152.553ZM170.922 152.553V158.038C168.766 159.194 166.328 160.272 163.609 161.272C160.922 162.272 157.953 162.772 154.703 162.772C150.234 162.772 146.344 161.725 143.031 159.631C139.75 157.538 137.203 154.694 135.391 151.1C133.609 147.475 132.719 143.366 132.719 138.772C132.719 133.397 133.781 128.881 135.906 125.225C138.062 121.569 140.891 118.819 144.391 116.975C147.922 115.1 151.734 114.163 155.828 114.163C160.047 114.163 163.578 114.991 166.422 116.647C169.297 118.272 170.734 120.647 170.734 123.772C170.734 125.647 170.141 127.069 168.953 128.038C167.797 128.975 166.5 129.444 165.062 129.444C164 129.444 163.078 129.272 162.297 128.928C161.516 128.553 160.828 128.178 160.234 127.803V119.459C158.766 118.616 157.422 118.194 156.203 118.194C153.359 118.194 150.906 119.038 148.844 120.725C146.812 122.381 145.25 124.663 144.156 127.569C143.062 130.475 142.516 133.788 142.516 137.506C142.516 141.038 143.109 144.272 144.297 147.209C145.484 150.116 147.25 152.428 149.594 154.147C151.969 155.866 154.906 156.725 158.406 156.725C160.625 156.725 162.75 156.366 164.781 155.647C166.812 154.928 168.859 153.897 170.922 152.553Z" fill="#8B8B8B"/>
<path d="M72.9553 99.7188L67.3772 100.094C66.7209 100.125 66.2209 100.375 65.8772 100.844C65.5334 101.281 65.3616 101.734 65.3616 102.203V135.719C65.3616 141.031 64.6741 145.625 63.2991 149.5C61.9553 153.344 59.7366 156.313 56.6428 158.406C53.5803 160.5 49.4553 161.547 44.2678 161.547C42.2053 161.547 40.2053 161.328 38.2678 160.891C36.3616 160.484 34.7678 160.063 33.4866 159.625C32.2053 159.156 31.4709 158.891 31.2834 158.828V142.422H37.0491L39.1584 154.141C39.3459 155.109 39.8772 155.766 40.7522 156.109C41.6584 156.453 42.5959 156.625 43.5647 156.625C47.9397 156.625 51.0491 154.938 52.8928 151.563C54.7366 148.156 55.6584 143.094 55.6584 136.375V102.203C55.6584 101.734 55.4866 101.281 55.1428 100.844C54.8303 100.375 54.3303 100.125 53.6428 100.094L47.5959 99.7188V95.5938H72.9553V99.7188ZM122.737 160H108.533L107.268 154.328C107.268 154.328 106.783 154.672 105.815 155.359C104.877 156.047 103.627 156.844 102.065 157.75C100.502 158.656 98.7678 159.453 96.8616 160.141C94.9866 160.828 93.1116 161.172 91.2366 161.172C87.7678 161.172 84.8147 160.016 82.3772 157.703C79.9709 155.391 78.7678 152.219 78.7678 148.188C78.7678 146.406 79.0803 144.75 79.7053 143.219C80.3616 141.688 81.6428 140.234 83.5491 138.859C85.4866 137.453 88.3459 136.094 92.1272 134.781C95.9397 133.438 100.987 132.078 107.268 130.703V126.578C107.268 120.266 104.283 117.109 98.3147 117.109C96.6584 117.109 95.2209 117.266 94.0022 117.578C92.8147 117.891 91.9866 118.141 91.5178 118.328V126.672H84.5334C83.6584 126.672 82.8459 126.516 82.0959 126.203C81.3459 125.859 80.9709 125.094 80.9709 123.906C80.9709 121.281 81.9709 119.141 83.9709 117.484C85.9709 115.797 88.5022 114.563 91.5647 113.781C94.6584 112.969 97.7834 112.563 100.94 112.563C104.908 112.563 107.987 113.188 110.174 114.438C112.362 115.656 113.893 117.359 114.768 119.547C115.643 121.703 116.08 124.172 116.08 126.953V153.859C116.08 154.453 116.268 154.938 116.643 155.313C117.049 155.688 117.533 155.906 118.096 155.969L122.737 156.25V160ZM107.268 150.953V134.359C102.955 135.422 99.5178 136.5 96.9553 137.594C94.4241 138.656 92.5334 139.734 91.2834 140.828C90.0334 141.891 89.2053 142.984 88.7991 144.109C88.4241 145.203 88.2366 146.344 88.2366 147.531C88.2366 149.5 88.8616 151.328 90.1116 153.016C91.3928 154.672 93.1741 155.5 95.4553 155.5C96.7366 155.5 98.0647 155.281 99.4397 154.844C100.815 154.375 102.096 153.844 103.283 153.25C104.471 152.625 105.424 152.094 106.143 151.656C106.893 151.188 107.268 150.953 107.268 150.953ZM165.815 150.953V156.438C163.658 157.594 161.221 158.672 158.502 159.672C155.815 160.672 152.846 161.172 149.596 161.172C145.127 161.172 141.237 160.125 137.924 158.031C134.643 155.938 132.096 153.094 130.283 149.5C128.502 145.875 127.612 141.766 127.612 137.172C127.612 131.797 128.674 127.281 130.799 123.625C132.955 119.969 135.783 117.219 139.283 115.375C142.815 113.5 146.627 112.563 150.721 112.563C154.94 112.563 158.471 113.391 161.315 115.047C164.19 116.672 165.627 119.047 165.627 122.172C165.627 124.047 165.033 125.469 163.846 126.438C162.69 127.375 161.393 127.844 159.955 127.844C158.893 127.844 157.971 127.672 157.19 127.328C156.408 126.953 155.721 126.578 155.127 126.203V117.859C153.658 117.016 152.315 116.594 151.096 116.594C148.252 116.594 145.799 117.438 143.737 119.125C141.705 120.781 140.143 123.063 139.049 125.969C137.955 128.875 137.408 132.188 137.408 135.906C137.408 139.438 138.002 142.672 139.19 145.609C140.377 148.516 142.143 150.828 144.487 152.547C146.862 154.266 149.799 155.125 153.299 155.125C155.518 155.125 157.643 154.766 159.674 154.047C161.705 153.328 163.752 152.297 165.815 150.953Z" fill="white"/>
<path d="M179.6 152.305C179.6 158.463 186.266 162.312 191.6 159.233L226.978 138.809C232.312 135.73 232.312 128.031 226.978 124.952L191.6 104.528C186.266 101.449 179.6 105.298 179.6 111.456V152.305Z" fill="#8B8B8B"/>
<path d="M172 150.705C172 156.863 178.666 160.712 184 157.633L219.378 137.209C224.712 134.13 224.712 126.431 219.378 123.352L184 102.928C178.666 99.8487 172 103.698 172 109.856V150.705Z" fill="#EEEEEE"/>
</svg>
