<svg viewBox="0 0 256 256" fill="none" xmlns="http://www.w3.org/2000/svg">
<path d="M250.648 65.9856C247.698 54.9642 239.036 46.303 228.015 43.3527C208.059 38 128 38 128 38C128 38 47.9422 38 27.9855 43.3527C16.9642 46.303 8.30296 54.9642 5.35267 65.9856C1.60225e-06 85.9422 0 127.604 0 127.604C0 127.604 1.60225e-06 169.267 5.35267 189.224C8.30296 200.245 16.9642 208.906 27.9855 211.856C47.9422 217.209 128 217.209 128 217.209C128 217.209 208.059 217.209 228.015 211.856C239.036 208.906 247.698 200.245 250.648 189.224C256.001 169.267 256.001 127.604 256.001 127.604C256.001 127.604 255.979 85.9422 250.648 65.9856Z" fill="#FF0000"/>
<path d="M71.9714 97.8175L65.696 98.2393C64.9578 98.2745 64.3953 98.5558 64.0085 99.0831C63.6218 99.5753 63.4285 100.085 63.4285 100.612V138.317C63.4285 144.294 62.655 149.462 61.1082 153.821C59.5964 158.146 57.1003 161.485 53.6199 163.841C50.1746 166.196 45.5339 167.374 39.698 167.374C37.3777 167.374 35.1277 167.128 32.948 166.636C30.8035 166.179 29.0105 165.704 27.5691 165.212C26.1277 164.685 25.3015 164.386 25.0906 164.316V145.858H31.5769L33.9499 159.042C34.1609 160.132 34.7585 160.87 35.7429 161.257C36.7624 161.644 37.8171 161.837 38.907 161.837C43.8289 161.837 47.3269 159.939 49.4011 156.142C51.4753 152.31 52.5124 146.614 52.5124 139.056V100.612C52.5124 100.085 52.3191 99.5753 51.9324 99.0831C51.5808 98.5558 51.0183 98.2745 50.2449 98.2393L43.4421 97.8175V93.1768H71.9714V97.8175ZM127.975 165.634H111.997L110.573 159.253C110.573 159.253 110.028 159.64 108.938 160.413C107.884 161.187 106.477 162.083 104.719 163.103C102.962 164.122 101.01 165.019 98.866 165.792C96.7566 166.566 94.6472 166.952 92.5378 166.952C88.6355 166.952 85.3132 165.651 82.571 163.05C79.864 160.448 78.5105 156.88 78.5105 152.345C78.5105 150.341 78.8621 148.478 79.5652 146.755C80.3035 145.032 81.7449 143.398 83.8894 141.851C86.0691 140.269 89.2859 138.739 93.5398 137.263C97.8289 135.751 103.507 134.222 110.573 132.675V128.034C110.573 120.933 107.216 117.382 100.501 117.382C98.6374 117.382 97.0203 117.558 95.6492 117.909C94.3132 118.261 93.3816 118.542 92.8542 118.753V128.14H84.9968C84.0124 128.14 83.0984 127.964 82.2546 127.612C81.4109 127.226 80.989 126.364 80.989 125.028C80.989 122.075 82.114 119.667 84.364 117.804C86.614 115.905 89.4617 114.517 92.907 113.638C96.3874 112.724 99.9031 112.267 103.454 112.267C107.919 112.267 111.382 112.97 113.843 114.376C116.303 115.747 118.026 117.663 119.01 120.124C119.995 122.55 120.487 125.327 120.487 128.456V158.726C120.487 159.394 120.698 159.939 121.12 160.36C121.577 160.782 122.122 161.028 122.755 161.099L127.975 161.415V165.634ZM110.573 155.456V136.788C105.721 137.983 101.854 139.196 98.9714 140.427C96.1238 141.622 93.9968 142.835 92.5906 144.066C91.1843 145.261 90.2527 146.491 89.7957 147.757C89.3738 148.987 89.1628 150.271 89.1628 151.607C89.1628 153.821 89.866 155.878 91.2722 157.776C92.7136 159.64 94.7175 160.571 97.2839 160.571C98.7253 160.571 100.219 160.325 101.766 159.833C103.313 159.306 104.755 158.708 106.091 158.04C107.427 157.337 108.499 156.739 109.307 156.247C110.151 155.72 110.573 155.456 110.573 155.456ZM176.438 155.456V161.626C174.012 162.927 171.27 164.14 168.212 165.265C165.188 166.39 161.848 166.952 158.192 166.952C153.165 166.952 148.788 165.775 145.061 163.419C141.37 161.064 138.505 157.864 136.466 153.821C134.462 149.743 133.46 145.12 133.46 139.952C133.46 133.905 134.655 128.825 137.046 124.712C139.471 120.599 142.653 117.505 146.591 115.431C150.563 113.321 154.852 112.267 159.458 112.267C164.204 112.267 168.177 113.198 171.376 115.062C174.61 116.89 176.227 119.562 176.227 123.077C176.227 125.187 175.559 126.786 174.223 127.876C172.923 128.931 171.464 129.458 169.846 129.458C168.651 129.458 167.614 129.265 166.735 128.878C165.856 128.456 165.083 128.034 164.415 127.612V118.226C162.762 117.276 161.251 116.802 159.88 116.802C156.68 116.802 153.921 117.751 151.6 119.65C149.315 121.513 147.557 124.079 146.327 127.349C145.096 130.618 144.481 134.345 144.481 138.528C144.481 142.501 145.149 146.14 146.485 149.444C147.821 152.714 149.807 155.316 152.444 157.249C155.116 159.183 158.421 160.15 162.358 160.15C164.854 160.15 167.245 159.745 169.53 158.937C171.815 158.128 174.118 156.968 176.438 155.456Z" fill="#8B8B8B"/>
<path d="M66.2511 96.0254L59.9757 96.4473C59.2374 96.4824 58.6749 96.7637 58.2882 97.291C57.9015 97.7832 57.7081 98.293 57.7081 98.8203V136.525C57.7081 142.502 56.9347 147.67 55.3878 152.029C53.8761 156.354 51.38 159.693 47.8995 162.049C44.4542 164.404 39.8136 165.582 33.9777 165.582C31.6573 165.582 29.4073 165.336 27.2277 164.844C25.0831 164.387 23.2902 163.912 21.8488 163.42C20.4073 162.893 19.5812 162.594 19.3702 162.523V144.066H25.8566L28.2296 157.25C28.4405 158.34 29.0382 159.078 30.0226 159.465C31.0421 159.852 32.0968 160.045 33.1866 160.045C38.1085 160.045 41.6066 158.146 43.6808 154.35C45.755 150.518 46.7921 144.822 46.7921 137.264V98.8203C46.7921 98.293 46.5988 97.7832 46.212 97.291C45.8605 96.7637 45.298 96.4824 44.5245 96.4473L37.7218 96.0254V91.3848H66.2511V96.0254ZM122.255 163.842H106.276L104.853 157.461C104.853 157.461 104.308 157.848 103.218 158.621C102.163 159.395 100.757 160.291 98.9991 161.311C97.2413 162.33 95.2902 163.227 93.1456 164C91.0363 164.773 88.9269 165.16 86.8175 165.16C82.9152 165.16 79.5929 163.859 76.8507 161.258C74.1437 158.656 72.7902 155.088 72.7902 150.553C72.7902 148.549 73.1417 146.686 73.8448 144.963C74.5831 143.24 76.0245 141.605 78.1691 140.059C80.3488 138.477 83.5655 136.947 87.8195 135.471C92.1085 133.959 97.7863 132.43 104.853 130.883V126.242C104.853 119.141 101.495 115.59 94.7804 115.59C92.9171 115.59 91.2999 115.766 89.9288 116.117C88.5929 116.469 87.6613 116.75 87.1339 116.961V126.348H79.2765C78.2921 126.348 77.378 126.172 76.5343 125.82C75.6905 125.434 75.2687 124.572 75.2687 123.236C75.2687 120.283 76.3937 117.875 78.6437 116.012C80.8937 114.113 83.7413 112.725 87.1866 111.846C90.6671 110.932 94.1827 110.475 97.7335 110.475C102.198 110.475 105.661 111.178 108.122 112.584C110.583 113.955 112.306 115.871 113.29 118.332C114.275 120.758 114.767 123.535 114.767 126.664V156.934C114.767 157.602 114.978 158.146 115.4 158.568C115.857 158.99 116.401 159.236 117.034 159.307L122.255 159.623V163.842ZM104.853 153.664V134.996C100.001 136.191 96.1339 137.404 93.2511 138.635C90.4034 139.83 88.2765 141.043 86.8702 142.273C85.464 143.469 84.5323 144.699 84.0753 145.965C83.6534 147.195 83.4425 148.479 83.4425 149.814C83.4425 152.029 84.1456 154.086 85.5519 155.984C86.9933 157.848 88.9972 158.779 91.5636 158.779C93.005 158.779 94.4991 158.533 96.046 158.041C97.5929 157.514 99.0343 156.916 100.37 156.248C101.706 155.545 102.778 154.947 103.587 154.455C104.431 153.928 104.853 153.664 104.853 153.664ZM170.718 153.664V159.834C168.292 161.135 165.55 162.348 162.491 163.473C159.468 164.598 156.128 165.16 152.472 165.16C147.444 165.16 143.068 163.982 139.341 161.627C135.65 159.271 132.784 156.072 130.745 152.029C128.741 147.951 127.739 143.328 127.739 138.16C127.739 132.113 128.935 127.033 131.325 122.92C133.751 118.807 136.933 115.713 140.87 113.639C144.843 111.529 149.132 110.475 153.737 110.475C158.484 110.475 162.456 111.406 165.655 113.27C168.89 115.098 170.507 117.77 170.507 121.285C170.507 123.395 169.839 124.994 168.503 126.084C167.202 127.139 165.743 127.666 164.126 127.666C162.931 127.666 161.894 127.473 161.015 127.086C160.136 126.664 159.362 126.242 158.694 125.82V116.434C157.042 115.484 155.53 115.01 154.159 115.01C150.96 115.01 148.2 115.959 145.88 117.857C143.595 119.721 141.837 122.287 140.607 125.557C139.376 128.826 138.761 132.553 138.761 136.736C138.761 140.709 139.429 144.348 140.765 147.652C142.101 150.922 144.087 153.523 146.724 155.457C149.396 157.391 152.7 158.357 156.638 158.357C159.134 158.357 161.525 157.953 163.81 157.145C166.095 156.336 168.398 155.176 170.718 153.664Z" fill="white"/>
<path d="M185.481 156.491C185.481 162.649 192.148 166.498 197.481 163.419L239.988 138.879C245.322 135.8 245.322 128.102 239.988 125.023L197.481 100.482C192.148 97.4035 185.481 101.252 185.481 107.411V156.491Z" fill="#8B8B8B"/>
<path d="M176.969 154.698C176.969 160.857 183.635 164.706 188.969 161.627L231.476 137.087C236.809 134.008 236.809 126.31 231.476 123.23L188.969 98.6904C183.635 95.6114 176.969 99.4604 176.969 105.619V154.698Z" fill="#EEEEEE"/>
</svg>